<svg width="149" height="30" viewBox="0 0 149 30" fill="none" xmlns="http://www.w3.org/2000/svg">
<g clip-path="url(#clip0_955_1240)">
<path d="M11.1074 12.0111C12.0313 12.0111 12.7756 12.1937 13.3815 12.5694C13.9972 12.9516 14.5394 13.5894 14.9909 14.4658L15.5079 15.4695L20.2416 11.6244L19.9421 11.076C19.1677 9.66107 18.0062 8.54119 16.4906 7.74761C14.989 6.96227 13.2516 6.56356 11.3249 6.56356C9.70393 6.56356 8.18095 6.82077 6.79704 7.32587C5.3972 7.83865 4.17808 8.6048 3.17522 9.60239C2.18216 10.5912 1.39433 11.8345 0.833778 13.2966C0.279968 14.7422 0 16.4259 0 18.301C0 20.176 0.280581 21.8553 0.835003 23.2884C1.39433 24.734 2.16378 25.9663 3.12253 26.9513C4.09476 27.95 5.25874 28.7161 6.58323 29.2295C7.89608 29.7406 9.33084 30 10.8465 30C11.8855 30 12.8651 29.8848 13.7546 29.6561C14.6392 29.4302 15.4571 29.1203 16.1867 28.737C16.9145 28.3547 17.5737 27.9088 18.1465 27.4103C18.6991 26.9299 19.1885 26.4286 19.6008 25.9186L20.0824 25.3241L15.5814 21.7413L14.9933 22.469C14.4585 23.1315 13.8293 23.6624 13.123 24.0457C12.4472 24.4126 11.7887 24.5909 11.1081 24.5909C9.63225 24.5909 8.46276 24.1061 7.53218 23.1068C6.57282 22.0791 6.08578 20.4623 6.08578 18.301C6.08578 16.1396 6.57282 14.5229 7.53218 13.4946C8.46276 12.4964 9.63225 12.0111 11.1081 12.0111H11.1074ZM22.9292 0H29.0579V29.4543H22.9292V0ZM51.5392 9.60733C50.5529 8.61029 49.3742 7.84469 48.0357 7.33136C46.7069 6.82187 45.2525 6.56356 43.713 6.56356C42.1735 6.56356 40.6793 6.82187 39.3634 7.333C38.0414 7.84633 36.8713 8.61193 35.8849 9.60733C34.9041 10.6 34.1383 11.8455 33.6097 13.3092C33.0883 14.7477 32.8249 16.4265 32.8249 18.301C32.8249 20.1755 33.0895 21.8498 33.6109 23.2747C34.1408 24.7269 34.9053 25.9652 35.8862 26.9557C36.8713 27.9522 38.0414 28.7178 39.3634 29.2295C40.6769 29.7406 42.1404 30 43.713 30C45.2856 30 46.7106 29.7417 48.0357 29.2317C49.3742 28.7194 50.5529 27.9538 51.5405 26.9562C52.5194 25.9652 53.2846 24.7269 53.8151 23.2752C54.3377 21.846 54.6024 20.1728 54.6024 18.3015C54.6024 16.4303 54.3377 14.7532 53.8164 13.3103C53.2871 11.846 52.5213 10.6005 51.5405 9.60787H51.5392V9.60733ZM48.5595 18.301C48.5595 20.47 48.0975 22.0933 47.186 23.1244C46.3136 24.1115 45.1784 24.5909 43.713 24.5909C42.2476 24.5909 41.1222 24.1121 40.264 23.1282C39.3646 22.0966 38.9088 20.4727 38.9088 18.301C38.9088 16.1292 39.3646 14.5064 40.2646 13.4743C41.1216 12.4899 42.2495 12.0111 43.7124 12.0111C45.1753 12.0111 46.3136 12.4909 47.1853 13.4781C48.0969 14.5097 48.5588 16.133 48.5588 18.301H48.5595ZM71.4005 21.5701C70.8932 22.6253 70.3345 23.4035 69.7396 23.8829C69.1791 24.3337 68.5223 24.553 67.7296 24.553C66.4891 24.553 65.6669 24.2284 65.2148 23.5582C64.8466 23.0152 64.4086 21.8175 64.4086 19.1987V7.10925H58.2805V21.2274C58.2805 22.6412 58.4956 23.907 58.9195 24.9885C59.352 26.0892 59.9481 27.022 60.6924 27.7602C61.4502 28.5143 62.3637 29.0852 63.4076 29.4554C64.4245 29.8168 65.5266 30 66.6833 30C67.9085 30 69.1025 29.7735 70.2328 29.3254C70.7198 29.1324 71.183 28.8894 71.6185 28.5988V29.4538H77.5291V7.10979H71.3998V21.5701H71.4005ZM95.5059 0V7.81343C95.2253 7.63135 94.9251 7.46517 94.6041 7.31765C93.521 6.81748 92.2375 6.56356 90.7893 6.56356C89.3411 6.56356 88.0576 6.82736 86.8618 7.34726C85.6617 7.86936 84.6208 8.64648 83.7681 9.65559C82.9337 10.6417 82.2745 11.88 81.8095 13.3361C81.3519 14.7697 81.1203 16.4402 81.1203 18.301C81.1203 20.1618 81.3531 21.7895 81.8107 23.2094C82.2757 24.6539 82.9416 25.8928 83.7907 26.8899C84.6582 27.911 85.7058 28.6942 86.9035 29.2157C88.0981 29.7362 89.4201 30 90.8328 30C92.2455 30 93.6931 29.7154 94.9606 29.1543C95.3178 28.9969 95.645 28.8253 95.9415 28.6399V29.4538H101.634V0H95.5059ZM95.7681 14.9243V21.4133C95.4073 22.3939 94.8651 23.1957 94.1544 23.7995C93.4646 24.3852 92.607 24.6693 91.53 24.6693C90.1461 24.6693 89.0911 24.1823 88.3051 23.1809C87.4609 22.1032 87.0321 20.4481 87.0321 18.262C87.0321 16.076 87.4622 14.3424 88.3131 13.3224C89.1113 12.361 90.2214 11.8932 91.7046 11.8932C92.5622 11.8932 93.3372 12.1241 94.0723 12.5979C94.7701 13.0487 95.3405 13.8313 95.7681 14.9238V14.9243Z" fill="#3C3C3B"/>
<path d="M118.617 6.5105V0.0078125H113.513V6.5105H105.852V11.0811H113.513V17.7159H118.617V11.0811H125.633V6.5105H118.617Z" fill="#238EAB"/>
<path d="M141.985 6.5105V0.0078125H136.881V6.5105H129.219V11.0811H136.881V17.7159H141.985V11.0811H149V6.5105H141.985Z" fill="#32FA64"/>
</g>
<defs>
<clipPath id="clip0_955_1240">
<rect width="149" height="30" fill="white"/>
</clipPath>
</defs>
</svg>
